<svg width="16" height="16" viewBox="0 0 16 16" fill="none" xmlns="http://www.w3.org/2000/svg">
<g clip-path="url(#clip0_9_1572)">
<mask id="mask0_9_1572" style="mask-type:luminance" maskUnits="userSpaceOnUse" x="0" y="0" width="16" height="16">
<path d="M16 0H0V16H16V0Z" fill="white"/>
</mask>
<g mask="url(#mask0_9_1572)">
<path d="M6.75 8C6.75 8.69036 7.30964 9.25 8 9.25C8.69036 9.25 9.25 8.69036 9.25 8C9.25 7.30964 8.69036 6.75 8 6.75C7.30964 6.75 6.75 7.30964 6.75 8ZM15 7.5H14.4745C14.2305 4.315 11.685 1.7695 8.5 1.5255V1C8.5 0.723858 8.27614 0.5 8 0.5C7.72386 0.5 7.5 0.723858 7.5 1V1.5255C4.315 1.7695 1.7695 4.315 1.5255 7.5H1C0.723858 7.5 0.5 7.72386 0.5 8C0.5 8.27614 0.723858 8.5 1 8.5H1.5255C1.7695 11.685 4.315 14.2305 7.5 14.4745V15C7.5 15.2761 7.72386 15.5 8 15.5C8.27614 15.5 8.5 15.2761 8.5 15V14.4745C11.685 14.2305 14.2305 11.685 14.4745 8.5H15C15.2761 8.5 15.5 8.27614 15.5 8C15.5 7.72386 15.2761 7.5 15 7.5ZM8.5 13.4745V12.5C8.5 12.2239 8.27614 12 8 12C7.72386 12 7.5 12.2239 7.5 12.5V13.4745C4.866 13.236 2.764 11.134 2.5255 8.5H3.5C3.77614 8.5 4 8.27614 4 8C4 7.72386 3.77614 7.5 3.5 7.5H2.5255C2.764 4.866 4.866 2.764 7.5 2.5255V3.5C7.5 3.77614 7.72386 4 8 4C8.27614 4 8.5 3.77614 8.5 3.5V2.5255C11.134 2.7645 13.236 4.866 13.4745 7.5H12.5C12.2239 7.5 12 7.72386 12 8C12 8.27614 12.2239 8.5 12.5 8.5H13.4745C13.236 11.134 11.134 13.236 8.5 13.4745Z" fill="#8F9BB3"/>
</g>
</g>
<defs>
<clipPath id="clip0_9_1572">
<rect width="16" height="16" fill="white"/>
</clipPath>
</defs>
</svg>
