<svg width="159" height="24" viewBox="0 0 159 24" fill="none" xmlns="http://www.w3.org/2000/svg">
<mask id="mask0_7_420" style="mask-type:alpha" maskUnits="userSpaceOnUse" x="0" y="0" width="24" height="24">
<path d="M0 0H24V24H0V0Z" fill="white"/>
</mask>
<g mask="url(#mask0_7_420)">
<path fill-rule="evenodd" clip-rule="evenodd" d="M23.0686 10.0983C23.0686 10.0983 22.4488 11.099 22.0488 11.4528C21.6488 11.8067 21.3532 12.0369 20.9945 12.0679C20.9945 12.0679 21.066 11.4714 21.039 11.0894C21.0121 10.7072 20.812 10.229 20.812 10.229C20.812 10.229 20.4738 10.926 19.9569 11.427C19.4402 11.928 19.1648 12.0587 18.5649 11.9538C17.965 11.8491 17.0575 11.1197 16.3145 9.87824C15.5716 8.63675 14.4252 6.23206 14.4252 6.23206C14.4252 6.23206 15.5987 5.00589 15.6632 4.23259C15.7279 3.45944 14.9263 2.9221 14.9263 2.9221C14.9263 2.9221 14.9104 3.46006 14.3713 3.9821C13.8322 4.50413 13.4398 4.72693 13.4398 4.72693C13.4398 4.72693 12.4063 3.81206 11.186 3.66677C9.96581 3.52164 8.96852 3.74259 8.96852 3.74259C8.96852 3.74259 8.75315 3.15449 8.30101 2.83174C7.84886 2.50899 6.85814 1.9458 6.85814 1.9458C6.85814 1.9458 6.72798 2.41538 6.84866 3.24268C6.96935 4.07013 7.87471 4.58814 7.87471 4.58814C7.87471 4.58814 6.31988 5.04148 3.77847 9.93997C1.31705 14.6842 0.648926 22.1958 0.648926 22.1958H17.1495L14.1289 17.2514C14.1289 17.2514 16.9453 18.6018 19.2637 18.2024C21.5823 17.8031 22.7379 14.7419 23.0106 13.406C23.2833 12.07 23.0686 10.0983 23.0686 10.0983Z" fill="url(#paint0_linear_7_420)"/>
</g>
<path d="M12.0111 12.8587L10.264 10.0934L13.5024 10.8319L12.1841 11.5062L12.0111 12.8587Z" fill="white"/>
<path d="M36.6582 13.6982H38.7021C38.6611 14.3682 38.4766 14.9629 38.1484 15.4824C37.8249 16.002 37.3714 16.4076 36.7881 16.6992C36.2093 16.9909 35.512 17.1367 34.6963 17.1367C34.0583 17.1367 33.4863 17.0273 32.9805 16.8086C32.4746 16.5853 32.0417 16.2663 31.6816 15.8516C31.3262 15.4368 31.055 14.9355 30.8682 14.3477C30.6813 13.7598 30.5879 13.1012 30.5879 12.3721V11.6816C30.5879 10.9525 30.6836 10.2939 30.875 9.70605C31.071 9.11361 31.349 8.61003 31.709 8.19531C32.0736 7.7806 32.5088 7.46159 33.0146 7.23828C33.5205 7.01497 34.0856 6.90332 34.71 6.90332C35.5394 6.90332 36.2389 7.05371 36.8086 7.35449C37.3828 7.65527 37.8271 8.06999 38.1416 8.59863C38.4606 9.12728 38.652 9.72884 38.7158 10.4033H36.665C36.6423 10.0023 36.5625 9.66276 36.4258 9.38477C36.2891 9.10221 36.0817 8.8903 35.8037 8.74902C35.5303 8.60319 35.1657 8.53027 34.71 8.53027C34.3682 8.53027 34.0697 8.59408 33.8145 8.72168C33.5592 8.84928 33.3451 9.04297 33.1719 9.30273C32.9987 9.5625 32.8688 9.89062 32.7822 10.2871C32.7002 10.679 32.6592 11.1393 32.6592 11.668V12.3721C32.6592 12.887 32.6979 13.3405 32.7754 13.7324C32.8529 14.1198 32.9714 14.4479 33.1309 14.7168C33.2949 14.9811 33.5046 15.1816 33.7598 15.3184C34.0195 15.4505 34.3317 15.5166 34.6963 15.5166C35.1247 15.5166 35.4779 15.4482 35.7559 15.3115C36.0339 15.1748 36.2458 14.972 36.3916 14.7031C36.542 14.4342 36.6309 14.0993 36.6582 13.6982ZM42.3039 6.5V17H40.3283V6.5H42.3039ZM46.309 9.60352V17H44.3334V9.60352H46.309ZM44.2104 7.67578C44.2104 7.38867 44.3106 7.15169 44.5111 6.96484C44.7117 6.77799 44.9805 6.68457 45.3178 6.68457C45.6505 6.68457 45.9171 6.77799 46.1176 6.96484C46.3227 7.15169 46.4252 7.38867 46.4252 7.67578C46.4252 7.96289 46.3227 8.19987 46.1176 8.38672C45.9171 8.57357 45.6505 8.66699 45.3178 8.66699C44.9805 8.66699 44.7117 8.57357 44.5111 8.38672C44.3106 8.19987 44.2104 7.96289 44.2104 7.67578ZM51.2916 15.5986C51.5331 15.5986 51.7473 15.5531 51.9342 15.4619C52.121 15.3662 52.2669 15.234 52.3717 15.0654C52.4811 14.8923 52.538 14.6895 52.5426 14.457H54.3951C54.3906 14.9766 54.2516 15.4391 53.9781 15.8447C53.7047 16.2458 53.3378 16.5625 52.8775 16.7949C52.4173 17.0228 51.9023 17.1367 51.3326 17.1367C50.7584 17.1367 50.2571 17.041 49.8287 16.8496C49.4049 16.6582 49.0517 16.3939 48.7691 16.0566C48.4866 15.7148 48.2747 15.3184 48.1334 14.8672C47.9921 14.4115 47.9215 13.9238 47.9215 13.4043V13.2061C47.9215 12.682 47.9921 12.1943 48.1334 11.7432C48.2747 11.2874 48.4866 10.891 48.7691 10.5537C49.0517 10.2119 49.4049 9.94531 49.8287 9.75391C50.2525 9.5625 50.7493 9.4668 51.3189 9.4668C51.9251 9.4668 52.456 9.58301 52.9117 9.81543C53.372 10.0479 53.732 10.3805 53.9918 10.8135C54.2561 11.2419 54.3906 11.75 54.3951 12.3379H52.5426C52.538 12.0918 52.4856 11.8685 52.3854 11.668C52.2896 11.4674 52.1484 11.3079 51.9615 11.1895C51.7792 11.0664 51.5536 11.0049 51.2848 11.0049C50.9977 11.0049 50.763 11.0664 50.5807 11.1895C50.3984 11.3079 50.2571 11.472 50.1568 11.6816C50.0566 11.8867 49.9859 12.1214 49.9449 12.3857C49.9085 12.6455 49.8902 12.9189 49.8902 13.2061V13.4043C49.8902 13.6914 49.9085 13.9671 49.9449 14.2314C49.9814 14.4958 50.0497 14.7305 50.15 14.9355C50.2548 15.1406 50.3984 15.3024 50.5807 15.4209C50.763 15.5394 50.9999 15.5986 51.2916 15.5986ZM57.8055 6.49316V17H55.8367V6.49316H57.8055ZM62.4676 9.60352L59.2547 13.2676L57.532 15.0107L56.8143 13.5889L58.1814 11.8525L60.1023 9.60352H62.4676ZM60.4236 17L58.2361 13.582L59.5965 12.3926L62.6932 17H60.4236ZM65.543 11.1826V17H63.5742V9.60352H65.4199L65.543 11.1826ZM65.2559 13.042H64.7227C64.7227 12.4951 64.7933 12.0029 64.9346 11.5654C65.0758 11.1234 65.2741 10.7474 65.5293 10.4375C65.7845 10.123 66.0876 9.88379 66.4385 9.71973C66.7939 9.55111 67.1904 9.4668 67.6279 9.4668C67.9743 9.4668 68.291 9.51693 68.5781 9.61719C68.8652 9.71745 69.1113 9.87695 69.3164 10.0957C69.526 10.3145 69.6855 10.6038 69.7949 10.9639C69.9089 11.3239 69.9658 11.7637 69.9658 12.2832V17H67.9834V12.2764C67.9834 11.9482 67.9378 11.693 67.8467 11.5107C67.7555 11.3285 67.6211 11.2008 67.4434 11.1279C67.2702 11.0505 67.056 11.0117 66.8008 11.0117C66.5365 11.0117 66.3063 11.0641 66.1104 11.1689C65.9189 11.2738 65.7594 11.4196 65.6318 11.6064C65.5088 11.7887 65.4154 12.0029 65.3516 12.249C65.2878 12.4951 65.2559 12.7594 65.2559 13.042ZM73.841 9.60352V17H71.8654V9.60352H73.841ZM71.7424 7.67578C71.7424 7.38867 71.8426 7.15169 72.0432 6.96484C72.2437 6.77799 72.5126 6.68457 72.8498 6.68457C73.1825 6.68457 73.4491 6.77799 73.6496 6.96484C73.8547 7.15169 73.9572 7.38867 73.9572 7.67578C73.9572 7.96289 73.8547 8.19987 73.6496 8.38672C73.4491 8.57357 73.1825 8.66699 72.8498 8.66699C72.5126 8.66699 72.2437 8.57357 72.0432 8.38672C71.8426 8.19987 71.7424 7.96289 71.7424 7.67578ZM80.143 15.2295V9.60352H82.1117V17H80.2592L80.143 15.2295ZM80.3617 13.7119L80.9428 13.6982C80.9428 14.1904 80.8858 14.6484 80.7719 15.0723C80.6579 15.4915 80.487 15.8561 80.2592 16.166C80.0313 16.4714 79.7442 16.7106 79.3979 16.8838C79.0515 17.0524 78.6436 17.1367 78.1742 17.1367C77.8142 17.1367 77.4815 17.0866 77.1762 16.9863C76.8754 16.8815 76.6156 16.7197 76.3969 16.501C76.1827 16.2777 76.0141 15.9928 75.891 15.6465C75.7725 15.2956 75.7133 14.874 75.7133 14.3818V9.60352H77.682V14.3955C77.682 14.6143 77.7071 14.7988 77.7572 14.9492C77.8119 15.0996 77.8871 15.2227 77.9828 15.3184C78.0785 15.4141 78.1902 15.4824 78.3178 15.5234C78.4499 15.5645 78.5958 15.585 78.7553 15.585C79.1609 15.585 79.4799 15.5029 79.7123 15.3389C79.9493 15.1748 80.1156 14.9515 80.2113 14.6689C80.3116 14.3818 80.3617 14.0628 80.3617 13.7119ZM85.8844 11.1348V17H83.9088V9.60352H85.7613L85.8844 11.1348ZM85.6109 13.042H85.0641C85.0641 12.527 85.1256 12.0531 85.2486 11.6201C85.3762 11.1826 85.5608 10.8044 85.8023 10.4854C86.0484 10.1618 86.3515 9.91113 86.7115 9.7334C87.0716 9.55566 87.4885 9.4668 87.9625 9.4668C88.2906 9.4668 88.5914 9.51693 88.8648 9.61719C89.1383 9.71289 89.373 9.86556 89.5689 10.0752C89.7695 10.2803 89.9244 10.5492 90.0338 10.8818C90.1432 11.21 90.1979 11.6042 90.1979 12.0645V17H88.2291V12.2832C88.2291 11.946 88.1835 11.6862 88.0924 11.5039C88.0012 11.3216 87.8714 11.194 87.7027 11.1211C87.5387 11.0482 87.3404 11.0117 87.108 11.0117C86.8528 11.0117 86.6295 11.0641 86.4381 11.1689C86.2512 11.2738 86.0963 11.4196 85.9732 11.6064C85.8502 11.7887 85.7591 12.0029 85.6998 12.249C85.6406 12.4951 85.6109 12.7594 85.6109 13.042ZM90.0133 12.8164L89.3092 12.9053C89.3092 12.4222 89.3684 11.9733 89.4869 11.5586C89.61 11.1439 89.79 10.7793 90.027 10.4648C90.2685 10.1504 90.567 9.90658 90.9225 9.7334C91.2779 9.55566 91.6881 9.4668 92.1529 9.4668C92.5084 9.4668 92.832 9.51921 93.1236 9.62402C93.4153 9.72428 93.6637 9.88607 93.8688 10.1094C94.0784 10.3281 94.2379 10.6152 94.3473 10.9707C94.4612 11.3262 94.5182 11.7614 94.5182 12.2764V17H92.5426V12.2764C92.5426 11.9346 92.497 11.6748 92.4059 11.4971C92.3193 11.3148 92.1917 11.1895 92.023 11.1211C91.859 11.0482 91.663 11.0117 91.4352 11.0117C91.1982 11.0117 90.9908 11.0596 90.8131 11.1553C90.6354 11.2464 90.4872 11.374 90.3688 11.5381C90.2503 11.7021 90.1614 11.8936 90.1021 12.1123C90.0429 12.3265 90.0133 12.5612 90.0133 12.8164ZM100.252 7.04688H103.964C104.725 7.04688 105.379 7.16081 105.926 7.38867C106.477 7.61654 106.901 7.95378 107.197 8.40039C107.493 8.84701 107.642 9.39616 107.642 10.0479C107.642 10.5811 107.55 11.0391 107.368 11.4219C107.19 11.8001 106.938 12.1169 106.609 12.3721C106.286 12.6227 105.905 12.8232 105.468 12.9736L104.818 13.3154H101.592L101.578 11.7158H103.978C104.338 11.7158 104.636 11.652 104.873 11.5244C105.11 11.3968 105.288 11.2191 105.406 10.9912C105.529 10.7633 105.591 10.499 105.591 10.1982C105.591 9.87923 105.532 9.60352 105.413 9.37109C105.295 9.13867 105.115 8.96094 104.873 8.83789C104.632 8.71484 104.328 8.65332 103.964 8.65332H102.303V17H100.252V7.04688ZM105.816 17L103.547 12.5635L105.714 12.5498L108.011 16.9043V17H105.816ZM112.802 17.1367C112.228 17.1367 111.713 17.0456 111.257 16.8633C110.801 16.6764 110.414 16.4189 110.095 16.0908C109.78 15.7627 109.539 15.3822 109.37 14.9492C109.202 14.5117 109.117 14.0469 109.117 13.5547V13.2812C109.117 12.7207 109.197 12.208 109.357 11.7432C109.516 11.2783 109.744 10.875 110.04 10.5332C110.341 10.1914 110.706 9.92936 111.134 9.74707C111.562 9.56022 112.045 9.4668 112.583 9.4668C113.107 9.4668 113.572 9.55339 113.978 9.72656C114.383 9.89974 114.723 10.1458 114.996 10.4648C115.274 10.7839 115.484 11.1667 115.625 11.6133C115.766 12.0553 115.837 12.5475 115.837 13.0898V13.9102H109.958V12.5977H113.903V12.4473C113.903 12.1738 113.852 11.93 113.752 11.7158C113.656 11.4971 113.511 11.3239 113.315 11.1963C113.119 11.0687 112.868 11.0049 112.563 11.0049C112.303 11.0049 112.08 11.0618 111.893 11.1758C111.706 11.2897 111.553 11.4492 111.435 11.6543C111.321 11.8594 111.234 12.1009 111.175 12.3789C111.12 12.6523 111.093 12.9531 111.093 13.2812V13.5547C111.093 13.8509 111.134 14.1243 111.216 14.375C111.303 14.6257 111.423 14.8421 111.578 15.0244C111.738 15.2067 111.929 15.348 112.153 15.4482C112.38 15.5485 112.638 15.5986 112.925 15.5986C113.28 15.5986 113.611 15.5303 113.916 15.3936C114.226 15.2523 114.493 15.0404 114.716 14.7578L115.673 15.7969C115.518 16.0202 115.306 16.2344 115.037 16.4395C114.773 16.6445 114.454 16.8132 114.08 16.9453C113.707 17.0729 113.28 17.1367 112.802 17.1367ZM120.314 15.5986C120.555 15.5986 120.77 15.5531 120.956 15.4619C121.143 15.3662 121.289 15.234 121.394 15.0654C121.503 14.8923 121.56 14.6895 121.565 14.457H123.417C123.413 14.9766 123.274 15.4391 123 15.8447C122.727 16.2458 122.36 16.5625 121.9 16.7949C121.44 17.0228 120.925 17.1367 120.355 17.1367C119.781 17.1367 119.279 17.041 118.851 16.8496C118.427 16.6582 118.074 16.3939 117.791 16.0566C117.509 15.7148 117.297 15.3184 117.156 14.8672C117.014 14.4115 116.944 13.9238 116.944 13.4043V13.2061C116.944 12.682 117.014 12.1943 117.156 11.7432C117.297 11.2874 117.509 10.891 117.791 10.5537C118.074 10.2119 118.427 9.94531 118.851 9.75391C119.275 9.5625 119.772 9.4668 120.341 9.4668C120.947 9.4668 121.478 9.58301 121.934 9.81543C122.394 10.0479 122.754 10.3805 123.014 10.8135C123.278 11.2419 123.413 11.75 123.417 12.3379H121.565C121.56 12.0918 121.508 11.8685 121.408 11.668C121.312 11.4674 121.171 11.3079 120.984 11.1895C120.801 11.0664 120.576 11.0049 120.307 11.0049C120.02 11.0049 119.785 11.0664 119.603 11.1895C119.421 11.3079 119.279 11.472 119.179 11.6816C119.079 11.8867 119.008 12.1214 118.967 12.3857C118.931 12.6455 118.912 12.9189 118.912 13.2061V13.4043C118.912 13.6914 118.931 13.9671 118.967 14.2314C119.004 14.4958 119.072 14.7305 119.172 14.9355C119.277 15.1406 119.421 15.3024 119.603 15.4209C119.785 15.5394 120.022 15.5986 120.314 15.5986ZM124.545 13.377V13.2334C124.545 12.6911 124.622 12.1921 124.777 11.7363C124.932 11.276 125.157 10.8773 125.454 10.54C125.75 10.2028 126.115 9.94076 126.547 9.75391C126.98 9.5625 127.477 9.4668 128.038 9.4668C128.598 9.4668 129.097 9.5625 129.535 9.75391C129.972 9.94076 130.339 10.2028 130.635 10.54C130.936 10.8773 131.164 11.276 131.319 11.7363C131.474 12.1921 131.551 12.6911 131.551 13.2334V13.377C131.551 13.9147 131.474 14.4137 131.319 14.874C131.164 15.3298 130.936 15.7285 130.635 16.0703C130.339 16.4076 129.975 16.6696 129.542 16.8564C129.109 17.0433 128.612 17.1367 128.051 17.1367C127.491 17.1367 126.992 17.0433 126.554 16.8564C126.121 16.6696 125.754 16.4076 125.454 16.0703C125.157 15.7285 124.932 15.3298 124.777 14.874C124.622 14.4137 124.545 13.9147 124.545 13.377ZM126.513 13.2334V13.377C126.513 13.6868 126.541 13.9762 126.595 14.2451C126.65 14.514 126.737 14.751 126.855 14.9561C126.978 15.1566 127.138 15.3138 127.334 15.4277C127.53 15.5417 127.769 15.5986 128.051 15.5986C128.325 15.5986 128.56 15.5417 128.755 15.4277C128.951 15.3138 129.109 15.1566 129.227 14.9561C129.346 14.751 129.432 14.514 129.487 14.2451C129.546 13.9762 129.576 13.6868 129.576 13.377V13.2334C129.576 12.9326 129.546 12.6501 129.487 12.3857C129.432 12.1169 129.343 11.8799 129.22 11.6748C129.102 11.4652 128.945 11.3011 128.749 11.1826C128.553 11.0641 128.316 11.0049 128.038 11.0049C127.76 11.0049 127.523 11.0641 127.327 11.1826C127.135 11.3011 126.978 11.4652 126.855 11.6748C126.737 11.8799 126.65 12.1169 126.595 12.3857C126.541 12.6501 126.513 12.9326 126.513 13.2334ZM135.03 11.2168V17H133.061V9.60352H134.914L135.03 11.2168ZM137.259 9.55566L137.224 11.3809C137.129 11.3672 137.012 11.3558 136.876 11.3467C136.744 11.333 136.623 11.3262 136.513 11.3262C136.235 11.3262 135.994 11.3626 135.789 11.4355C135.588 11.5039 135.42 11.6064 135.283 11.7432C135.151 11.8799 135.051 12.0462 134.982 12.2422C134.918 12.4382 134.882 12.6615 134.873 12.9121L134.476 12.7891C134.476 12.3105 134.524 11.8708 134.62 11.4697C134.716 11.0641 134.855 10.7109 135.037 10.4102C135.224 10.1094 135.452 9.87695 135.721 9.71289C135.989 9.54883 136.297 9.4668 136.643 9.4668C136.753 9.4668 136.864 9.47591 136.978 9.49414C137.092 9.50781 137.186 9.52832 137.259 9.55566ZM142.72 15.3867V6.5H144.702V17H142.918L142.72 15.3867ZM138.044 13.3906V13.2471C138.044 12.682 138.108 12.1693 138.235 11.709C138.363 11.2441 138.55 10.8454 138.796 10.5127C139.042 10.18 139.345 9.92253 139.705 9.74023C140.065 9.55794 140.475 9.4668 140.936 9.4668C141.368 9.4668 141.747 9.55794 142.07 9.74023C142.398 9.92253 142.676 10.1823 142.904 10.5195C143.137 10.8522 143.324 11.2464 143.465 11.7021C143.606 12.1533 143.709 12.6478 143.772 13.1855V13.5C143.709 14.015 143.606 14.4935 143.465 14.9355C143.324 15.3776 143.137 15.765 142.904 16.0977C142.676 16.4258 142.398 16.681 142.07 16.8633C141.742 17.0456 141.359 17.1367 140.922 17.1367C140.462 17.1367 140.051 17.0433 139.691 16.8564C139.336 16.6696 139.035 16.4076 138.789 16.0703C138.548 15.7331 138.363 15.3366 138.235 14.8809C138.108 14.4251 138.044 13.9284 138.044 13.3906ZM140.013 13.2471V13.3906C140.013 13.696 140.035 13.9808 140.081 14.2451C140.131 14.5094 140.211 14.7441 140.32 14.9492C140.434 15.1497 140.58 15.307 140.758 15.4209C140.94 15.5303 141.161 15.585 141.421 15.585C141.758 15.585 142.036 15.5098 142.255 15.3594C142.474 15.2044 142.64 14.9925 142.754 14.7236C142.872 14.4548 142.941 14.1449 142.959 13.7939V12.8984C142.945 12.6113 142.904 12.3538 142.836 12.126C142.772 11.8936 142.676 11.6953 142.549 11.5312C142.426 11.3672 142.271 11.2396 142.084 11.1484C141.902 11.0573 141.685 11.0117 141.435 11.0117C141.179 11.0117 140.961 11.071 140.778 11.1895C140.596 11.3034 140.448 11.4606 140.334 11.6611C140.225 11.8617 140.143 12.0986 140.088 12.3721C140.038 12.641 140.013 12.9326 140.013 13.2471ZM149.945 17.1367C149.37 17.1367 148.855 17.0456 148.4 16.8633C147.944 16.6764 147.557 16.4189 147.238 16.0908C146.923 15.7627 146.682 15.3822 146.513 14.9492C146.344 14.5117 146.26 14.0469 146.26 13.5547V13.2812C146.26 12.7207 146.34 12.208 146.499 11.7432C146.659 11.2783 146.887 10.875 147.183 10.5332C147.484 10.1914 147.848 9.92936 148.277 9.74707C148.705 9.56022 149.188 9.4668 149.726 9.4668C150.25 9.4668 150.715 9.55339 151.12 9.72656C151.526 9.89974 151.865 10.1458 152.139 10.4648C152.417 10.7839 152.627 11.1667 152.768 11.6133C152.909 12.0553 152.98 12.5475 152.98 13.0898V13.9102H147.101V12.5977H151.045V12.4473C151.045 12.1738 150.995 11.93 150.895 11.7158C150.799 11.4971 150.653 11.3239 150.457 11.1963C150.261 11.0687 150.011 11.0049 149.705 11.0049C149.446 11.0049 149.222 11.0618 149.035 11.1758C148.849 11.2897 148.696 11.4492 148.577 11.6543C148.463 11.8594 148.377 12.1009 148.318 12.3789C148.263 12.6523 148.236 12.9531 148.236 13.2812V13.5547C148.236 13.8509 148.277 14.1243 148.359 14.375C148.445 14.6257 148.566 14.8421 148.721 15.0244C148.88 15.2067 149.072 15.348 149.295 15.4482C149.523 15.5485 149.78 15.5986 150.068 15.5986C150.423 15.5986 150.753 15.5303 151.059 15.3936C151.369 15.2523 151.635 15.0404 151.859 14.7578L152.816 15.7969C152.661 16.0202 152.449 16.2344 152.18 16.4395C151.916 16.6445 151.597 16.8132 151.223 16.9453C150.849 17.0729 150.423 17.1367 149.945 17.1367ZM156.37 11.2168V17H154.401V9.60352H156.253L156.37 11.2168ZM158.598 9.55566L158.564 11.3809C158.468 11.3672 158.352 11.3558 158.215 11.3467C158.083 11.333 157.962 11.3262 157.853 11.3262C157.575 11.3262 157.333 11.3626 157.128 11.4355C156.928 11.5039 156.759 11.6064 156.622 11.7432C156.49 11.8799 156.39 12.0462 156.322 12.2422C156.258 12.4382 156.221 12.6615 156.212 12.9121L155.816 12.7891C155.816 12.3105 155.864 11.8708 155.959 11.4697C156.055 11.0641 156.194 10.7109 156.376 10.4102C156.563 10.1094 156.791 9.87695 157.06 9.71289C157.329 9.54883 157.636 9.4668 157.983 9.4668C158.092 9.4668 158.204 9.47591 158.318 9.49414C158.432 9.50781 158.525 9.52832 158.598 9.55566Z" fill="#466AFB"/>
<defs>
<linearGradient id="paint0_linear_7_420" x1="11.8989" y1="1.9458" x2="11.8989" y2="22.1958" gradientUnits="userSpaceOnUse">
<stop stop-color="#4746FB"/>
<stop offset="1" stop-color="#43B9FB"/>
</linearGradient>
</defs>
</svg>
