<svg width="14" height="14" viewBox="0 0 14 14" fill="none" xmlns="http://www.w3.org/2000/svg">
<path d="M12.6 2.25999H13.35C13.35 1.84578 13.0142 1.50999 12.6 1.50999V2.25999ZM1.22498 2.25999V1.50999C0.810762 1.50999 0.474976 1.84578 0.474976 2.25999H1.22498ZM1.22498 4.99998H0.474976C0.474976 5.4142 0.810762 5.74998 1.22498 5.74998L1.22498 4.99998ZM12.6 4.99998V5.74998C13.0142 5.74998 13.35 5.4142 13.35 4.99998H12.6ZM13.35 3.12727C13.35 2.71305 13.0142 2.37727 12.6 2.37727C12.1858 2.37727 11.85 2.71305 11.85 3.12727H13.35ZM12.6 11.8V12.55H13.35V11.8H12.6ZM1.97498 3.12727C1.97498 2.71305 1.63919 2.37727 1.22498 2.37727C0.810762 2.37727 0.474976 2.71305 0.474976 3.12727H1.97498ZM0.474976 7.46363C0.474976 7.87784 0.810762 8.21363 1.22498 8.21363C1.63919 8.21363 1.97498 7.87784 1.97498 7.46363H0.474976ZM8.5 11.05C8.08579 11.05 7.75 11.3858 7.75 11.8C7.75 12.2142 8.08579 12.55 8.5 12.55V11.05ZM12.6 1.50999H1.22498V3.00999H12.6V1.50999ZM0.474976 2.25999V4.99998H1.97498V2.25999H0.474976ZM1.22498 5.74998H12.6V4.24998H1.22498V5.74998ZM13.35 4.99998V2.25999H11.85V4.99998H13.35ZM11.85 3.12727V11.8H13.35V3.12727H11.85ZM0.474976 3.12727V7.46363H1.97498V3.12727H0.474976ZM8.5 12.55H12.6V11.05H8.5V12.55Z" fill="#C351D6"/>
<path d="M8 7L2 9.23236L5 10L5.94819 13L8 7Z" stroke="#C351D6" stroke-width="1.5" stroke-linejoin="round"/>
</svg>
