<svg width="16" height="16" viewBox="0 0 16 16" fill="none" xmlns="http://www.w3.org/2000/svg">
<g clip-path="url(#clip0_7_1073)">
<mask id="mask0_7_1073" style="mask-type:luminance" maskUnits="userSpaceOnUse" x="0" y="0" width="16" height="16">
<path d="M16 0H0V16H16V0Z" fill="white"/>
</mask>
<g mask="url(#mask0_7_1073)">
<path d="M8.00001 0.999969C4.13751 0.999969 1 4.13748 1 7.99998C1 11.8625 4.13751 15 8.00001 15C11.8625 15 15 11.8625 15 7.99998C15 4.13748 11.8625 0.999969 8.00001 0.999969ZM8.5 12H7.5V11H8.5V12ZM8.67501 8.82497L8.58749 8.89998C8.5375 8.93748 8.5 9.02497 8.5 9.09998V10.0125H7.5V9.09998C7.5 8.71248 7.67501 8.34997 7.9625 8.11246L8.05 8.03746C8.925 7.33746 9.35001 6.97496 9.35001 6.34997C9.35001 5.59996 8.74999 4.99997 8.00001 4.99997C7.22501 4.99997 6.65001 5.57497 6.65001 6.34997H5.65001C5.65001 5.03748 6.68749 3.99997 8.00001 3.99997C9.29999 3.99997 10.35 5.04996 10.35 6.34997C10.35 7.48748 9.575 8.11247 8.67501 8.82497Z" fill="#486BFB"/>
</g>
</g>
<defs>
<clipPath id="clip0_7_1073">
<rect width="16" height="16" fill="white"/>
</clipPath>
</defs>
</svg>
