<svg width="16" height="16" viewBox="0 0 16 16" fill="none" xmlns="http://www.w3.org/2000/svg">
<path d="M11.9701 4.52935C11.9701 4.52935 13.5846 4.51336 13.5846 6.11181C13.5846 6.11181 13.7341 7.65926 11.9701 7.69326C11.9701 7.69326 10.3897 7.72726 10.4057 6.11181C10.4062 6.11081 10.3887 4.67835 11.9701 4.52935ZM15.1505 2.09793C15.1505 2.09793 16 2.16443 16 2.91341V14.0836C16 14.0836 15.9495 14.8825 15.1505 14.9V2.09793ZM0 14.0846C0 14.0846 0.033999 14.901 0.816474 14.901H15.1505V12.5371H13.5881L10.4057 9.30671L8.00825 11.7196L4.74535 7.69226L1.53245 12.5041L0.817474 12.5201L0.799475 2.91491H0.000499984L0 14.0846ZM15.1505 2.09793H0.816474C0.816474 2.09793 0 2.08093 0 2.91341H15.1505V2.09793Z" fill="#457AE6"/>
</svg>
