<svg width="18" height="18" viewBox="0 0 18 18" fill="none" xmlns="http://www.w3.org/2000/svg">
<g filter="url(#filter0_i_7_1487)">
<path d="M1.64 1H17V17H1.64C1.28654 17 1 16.5523 1 16V2C1 1.44772 1.28654 1 1.64 1Z" fill="black"/>
</g>
<path fill-rule="evenodd" clip-rule="evenodd" d="M16.84 1.25V16.75H1.64003C1.50749 16.75 1.38749 16.6661 1.30062 16.5303C1.21376 16.3946 1.16003 16.2071 1.16003 16V2C1.16003 1.79289 1.21376 1.60539 1.30062 1.46967C1.38749 1.33395 1.50749 1.25 1.64003 1.25H16.84Z" fill="white" stroke="#E4E9F2" stroke-width="0.615385"/>
<path fill-rule="evenodd" clip-rule="evenodd" d="M7.99996 8C9.28862 8 10.3333 6.95533 10.3333 5.66666C10.3333 4.378 9.28862 3.33333 7.99996 3.33333C6.7113 3.33333 5.66663 4.378 5.66663 5.66666C5.66663 6.95533 6.7113 8 7.99996 8Z" fill="#E4EDFF" stroke="#457AE6" stroke-width="0.615385"/>
<path fill-rule="evenodd" clip-rule="evenodd" d="M6.08317 9.85392L7.00004 11V12V6.33334C7.00004 5.78105 7.44775 5.33334 8.00004 5.33334C8.55232 5.33334 9.00004 5.78105 9.00004 6.33334V8.66667H12.3334L13 9.33334V11.3333L11.6667 14.6667H7.00004L4.33337 11.3333V10L5.00004 9.33334C5.42141 9.33334 5.81994 9.52488 6.08317 9.85392Z" fill="white" stroke="#666F80" stroke-width="0.615385"/>
<defs>
<filter id="filter0_i_7_1487" x="1" y="1" width="16" height="16.6154" filterUnits="userSpaceOnUse" color-interpolation-filters="sRGB">
<feFlood flood-opacity="0" result="BackgroundImageFix"/>
<feBlend mode="normal" in="SourceGraphic" in2="BackgroundImageFix" result="shape"/>
<feColorMatrix in="SourceAlpha" type="matrix" values="0 0 0 0 0 0 0 0 0 0 0 0 0 0 0 0 0 0 127 0" result="hardAlpha"/>
<feOffset dy="0.615385"/>
<feGaussianBlur stdDeviation="1.23077"/>
<feComposite in2="hardAlpha" operator="arithmetic" k2="-1" k3="1"/>
<feColorMatrix type="matrix" values="0 0 0 0 0.797837 0 0 0 0 0.823825 0 0 0 0 0.852638 0 0 0 1 0"/>
<feBlend mode="normal" in2="shape" result="effect1_innerShadow_7_1487"/>
</filter>
</defs>
</svg>
